<svg xmlns="http://www.w3.org/2000/svg" xmlns:xlink="http://www.w3.org/1999/xlink" width="763" height="75" version="1.1" viewBox="0 0 763 75"><title>Error</title><desc>Created with Sketch.</desc><defs><linearGradient id="linearGradient-1" x1="0%" x2="100%" y1="50%" y2="50%"><stop offset="0%" stop-color="#F96E7C"/><stop offset="100%" stop-color="#B44B83"/></linearGradient><linearGradient id="linearGradient-2" x1="101.557%" x2="-1.863%" y1="50%" y2="50%"><stop offset="0%" stop-color="#17181C" stop-opacity=".453"/><stop offset="100%" stop-color="#1A1A1E" stop-opacity=".17"/></linearGradient><rect id="path-3" width="762.171" height="74.657" x="0" y="0" rx="22.286"/><filter id="filter-5" width="115.1%" height="254%" x="-7.5%" y="-55.6%" filterUnits="objectBoundingBox"><feOffset dx="0" dy="16" in="SourceAlpha" result="shadowOffsetOuter1"/><feGaussianBlur in="shadowOffsetOuter1" result="shadowBlurOuter1" stdDeviation="16.5"/><feColorMatrix in="shadowBlurOuter1" type="matrix" values="0 0 0 0 0.0175721056 0 0 0 0 0.0612828351 0 0 0 0 0.0338370629 0 0 0 0.274311626 0"/></filter></defs><g id="Error" fill="none" fill-rule="evenodd" stroke="none" stroke-width="1"><mask id="mask-4" fill="#fff"><use xlink:href="#path-3"/></mask><g id="Rectangle" opacity=".9"><use fill="#000" fill-opacity="1" filter="url(#filter-5)" xlink:href="#path-3"/><use fill="url(#linearGradient-1)" fill-rule="evenodd" xlink:href="#path-3"/><use fill="url(#linearGradient-2)" fill-opacity=".48" fill-rule="evenodd" xlink:href="#path-3"/></g><g id="problem" mask="url(#mask-4)"><g id="Group-2"><g transform="translate(22.842857, 22.285714)"><path id="Shape" fill="#FF9191" fill-rule="nonzero" d="M30.2333313,17.9641882 L21.0317688,3.04952322 C19.8537232,1.13992994 17.8230286,0 15.6,0 C13.3769714,0 11.3462768,1.13992994 10.1682312,3.04952322 L0.966668686,17.9641882 C0.334204102,18.9892825 0,20.1725466 0,21.3859039 C0,24.9542337 2.87025143,27.8571429 6.3984375,27.8571429 L24.8015625,27.8571429 C28.3297486,27.8571429 31.2,24.9542337 31.2,21.3859039 C31.2,20.1725466 30.8657959,18.9892825 30.2333313,17.9641882 Z M24.8015625,26.0082174 L6.3984375,26.0082174 C3.87833861,26.0082174 1.828125,23.9346765 1.828125,21.3859039 C1.828125,20.5189794 2.06663815,19.6742034 2.51771849,18.9430594 L11.719281,4.02839437 C12.5612182,2.66360817 14.0118164,1.84892541 15.6,1.84892541 C17.1881836,1.84892541 18.6387818,2.66360817 19.480719,4.02839437 L28.6822815,18.9430594 C29.1333618,19.6742034 29.371875,20.5189794 29.371875,21.3859039 C29.371875,23.9346765 27.3216614,26.0082174 24.8015625,26.0082174 Z"/><g id="Group-5" fill="#FFF" fill-rule="nonzero" transform="translate(14.485714, 8.357143)"><polygon id="Path" points="0 0 2.229 0 2.229 8.914 0 8.914"/><polygon id="Path" points="0 11.143 2.229 11.143 2.229 13.371 0 13.371"/></g></g></g></g></g></svg>