<svg xmlns="http://www.w3.org/2000/svg" xmlns:xlink="http://www.w3.org/1999/xlink" width="118" height="35" version="1.1" viewBox="0 0 118 35"><title>Logo</title><desc>Created with Sketch.</desc><g id="Elastos" fill="none" fill-rule="evenodd" stroke="none" stroke-width="1"><g id="Elastos-Wallet.-Main" transform="translate(-57.000000, -88.000000)"><g id="Logo"><g transform="translate(57.000000, 83.000000)"><g id="Symbol-new" stroke="#9799A6" stroke-width=".557" opacity=".793" transform="translate(0.000000, 10.028571)"><polygon id="Fill-1" points="16.839 13.597 24.417 9.22 16.839 4.817"/><polygon id="Fill-2" points="15.997 13.597 8.42 9.22 15.997 4.817"/><polygon id="Fill-3" points="24.417 0 16.839 4.377 24.417 8.78"/><polygon id="Fill-4" points="25.259 0 32.836 4.377 25.259 8.78"/><polygon id="Fill-5" points="7.578 0 0 4.377 7.578 8.78"/><polygon id="Fill-6" points="8.42 0 15.997 4.377 8.42 8.78"/><polygon id="Fill-7" points="16.839 26.097 24.417 21.72 16.839 17.316"/><polygon id="Fill-8" points="15.997 26.097 8.42 21.72 15.997 17.316"/><polygon id="Fill-9" points="24.417 12.5 16.839 16.877 24.417 21.28"/><polygon id="Fill-10" points="25.259 12.5 32.836 16.877 25.259 21.28"/><polygon id="Fill-11" points="7.578 12.5 0 16.877 7.578 21.28"/><polygon id="Fill-12" points="8.42 12.5 15.997 16.877 8.42 21.28"/></g><text id="elastos" fill="#FFF" font-family="BioSans-Light, Bio Sans" font-size="22.286" font-weight="300" letter-spacing="-.514"><tspan x="50.7" y="22">elastos</tspan></text><text id="light-wallet" fill="#9799A6" font-family="BioSans-Light, Bio Sans" font-size="10.029" font-weight="300" letter-spacing="-.111"><tspan x="51.814" y="37.3">light wallet</tspan></text></g></g></g></g></svg>