<svg xmlns="http://www.w3.org/2000/svg" xmlns:xlink="http://www.w3.org/1999/xlink" width="13" height="14" version="1.1" viewBox="0 0 13 14"><title>Log out</title><desc>Created with Sketch.</desc><g id="Elastos" fill="none" fill-rule="evenodd" stroke="none" stroke-width="1"><g id="Elastos-Wallet.-Main" transform="translate(-213.000000, -479.000000)"><g id="Log-out" transform="translate(213.000000, 480.000000)"><polygon id="Path" fill="#B2B4C3" fill-rule="nonzero" points="5.563 3.273 4.908 3.9 6.67 5.587 0 5.587 0 6.474 6.67 6.474 4.908 8.16 5.563 8.788 8.444 6.03" transform="translate(4.222222, 6.030303) scale(-1, 1) translate(-4.222222, -6.030303)"/><path id="Path" stroke="#56575C" stroke-width=".836" d="M0.571428571,3.15 C0.571428571,1.41030304 1.91457432,0 3.57142857,0 L9,0 C10.6568542,0 12,1.41030304 12,3.15 L12,8.85 C12,10.589697 10.6568542,12 9,12 L3.57142857,12 C1.91457432,12 0.571428571,10.589697 0.571428571,8.85 L0.571428571,8.6625 L0.571428571,8.6625"/></g></g></g></svg>