<svg xmlns="http://www.w3.org/2000/svg" xmlns:xlink="http://www.w3.org/1999/xlink" width="25" height="28" version="1.1" viewBox="0 0 25 28"><title>Refresh</title><desc>Created with Sketch.</desc><g id="Elastos" fill="none" fill-rule="evenodd" stroke="none" stroke-width="1"><g id="Elastos-Wallet.-Main" stroke="#FFF" stroke-width="1.205" transform="translate(-1002.000000, -39.000000)"><g id="Refresh" transform="translate(1002.403846, 38.942308)"><g id="Group-3" stroke-linecap="round" transform="translate(0.000000, 14.174403)"><polyline id="Path-25" points=".592 .278 3.41 1.39 6.228 .278"/></g><g id="Group-3-Copy" transform="translate(13.894231, 13.660234) scale(-1, -1) translate(-13.894231, -13.660234) translate(3.269231, 0.361308)"><path id="Shape" d="M21.1372679,11.9509674 L21.1372679,20.2888516 C21.1372679,23.512272 18.4874943,26.1253706 15.2188329,26.1253706 L9.30039788,26.1253706 C6.03173648,26.1253706 3.38196286,23.512272 3.38196286,20.2888516 C3.38196286,19.9019108 3.38196286,18.7820928 3.38196286,18.5969744 M3.38196286,14.4523327 C3.38196286,12.5994695 3.38196286,9.82017475 3.38196286,6.11444843 C3.38196286,2.89102802 6.03173648,0.277929474 9.30039788,0.277929474 L15.2188329,0.277929474 C18.4874943,0.277929474 21.1372679,2.89102802 21.1372679,6.11444843 L21.1372679,7.78202528"/><polyline id="Path-25" stroke-linecap="round" points=".535 13.619 3.354 14.73 6.172 13.619"/></g></g></g></g></svg>